<svg viewBox="0 0 30 30" fill="none" xmlns="http://www.w3.org/2000/svg">
<path d="M8.9858 30C13.9485 30 17.9716 25.6542 17.9716 20.2934C17.9716 14.9327 13.9485 10.5869 8.9858 10.5869C4.02308 10.5869 0 14.9327 0 20.2934C0 25.6542 4.02308 30 8.9858 30Z" fill="#04E061"/>
<path d="M24.571 28.7766C27.5694 28.7766 30 26.151 30 22.912C30 19.6731 27.5694 17.0474 24.571 17.0474C21.5726 17.0474 19.1418 19.6731 19.1418 22.912C19.1418 26.151 21.5726 28.7766 24.571 28.7766Z" fill="#FF4053"/>
<path d="M10.7036 9.32736C12.5594 9.32736 14.0638 7.70224 14.0638 5.69755C14.0638 3.69287 12.5594 2.06775 10.7036 2.06775C8.84774 2.06775 7.34329 3.69287 7.34329 5.69755C7.34329 7.70224 8.84774 9.32736 10.7036 9.32736Z" fill="#965EEB"/>
<path d="M22.4604 15.7833C26.4951 15.7833 29.766 12.2501 29.766 7.89166C29.766 3.53321 26.4951 0 22.4604 0C18.4255 0 15.1546 3.53321 15.1546 7.89166C15.1546 12.2501 18.4255 15.7833 22.4604 15.7833Z" fill="#00AAFF"/>
</svg>
