<svg viewBox="0 0 40 40" version="1.1" xmlns="http://www.w3.org/2000/svg" xmlns:xlink="http://www.w3.org/1999/xlink">
    <path d="M20 40C31.0457 40 40 31.0457 40 20C40 8.9543 31.0457 0 20 0C8.9543 0 0 8.9543 0 20C0 31.0457 8.9543 40 20 40Z" fill="#4F76A1"/>
    <path fill-rule="evenodd" clip-rule="evenodd" d="M19.172 26.618H20.395C20.395 26.618 20.764 26.578 20.952 26.374C21.126 26.187 21.12 25.837 21.12 25.837C21.12 25.837 21.097 24.197 21.858 23.955C22.608 23.717 23.572 25.541 24.593 26.242C25.365 26.772 25.953 26.656 25.953 26.656L28.683 26.618C28.683 26.618 30.112 26.53 29.434 25.406C29.379 25.315 29.04 24.576 27.404 23.056C25.691 21.467 25.921 21.725 27.984 18.976C29.24 17.301 29.742 16.279 29.585 15.841C29.435 15.424 28.511 15.534 28.511 15.534L25.437 15.554C25.437 15.554 25.208 15.522 25.04 15.624C24.874 15.722 24.768 15.954 24.768 15.954C24.768 15.954 24.281 17.249 23.632 18.351C22.263 20.676 21.716 20.799 21.492 20.654C20.972 20.318 21.102 19.303 21.102 18.581C21.102 16.328 21.443 15.388 20.436 15.145C20.102 15.065 19.856 15.011 19 15.003C17.903 14.991 16.975 15.006 16.449 15.263C16.099 15.435 15.829 15.817 15.994 15.838C16.197 15.866 16.657 15.963 16.901 16.295C17.216 16.724 17.205 17.686 17.205 17.686C17.205 17.686 17.386 20.339 16.782 20.668C16.368 20.894 15.799 20.433 14.579 18.323C13.953 17.243 13.481 16.048 13.481 16.048C13.481 16.048 13.391 15.825 13.228 15.706C13.0848 15.6113 12.9239 15.5467 12.755 15.516L9.83304 15.534C9.83304 15.534 9.39504 15.546 9.23304 15.737C9.09004 15.907 9.22204 16.257 9.22204 16.257C9.22204 16.257 11.51 21.61 14.1 24.307C16.475 26.78 19.172 26.617 19.172 26.617" fill="white"/>
</svg>