<svg xmlns="http://www.w3.org/2000/svg" viewBox="0 0 76 118.75" x="0px" y="0px"><g data-name="Layer 2"><g><path d="M75.91,34.43a57.08,57.08,0,0,0-1.75-12.16,11.92,11.92,0,0,1-.46-2.71c-.12-2.5-.57-7.24-1.74-9.85C69,2.51,63.07.49,58.62.05a26.64,26.64,0,0,0-9.35,1.27c-7.92,2.73-10,7.29-11,14.23A32.63,32.63,0,0,0,38,21.74a55.7,55.7,0,0,0,1.72,11.51,1,1,0,0,0-.08.22c-2.08,9.37-3.07,22-2.35,30.51a46.23,46.23,0,0,1,12.42,6.08c.4.29.8.58,1.19.88a21.22,21.22,0,0,1,3.18,2.88,5.2,5.2,0,0,1,1,1.56.63.63,0,0,1,0,.65c-.19.19-.51.08-.74-.06a9.29,9.29,0,0,1-1.63-1.44,32.76,32.76,0,0,0-8.78-6.19c-4.46-2.23-9.27-3.5-13.94-5.17l-1.39-.5c-4.22-1.59-8.42-3.25-12.7-4.69-1.9-.63-3.82-1.23-5.77-1.69-1.64-.39-3.67-.94-5.34-.55A5.21,5.21,0,0,0,2.65,56.8,7.48,7.48,0,0,0,.24,60.92a7.63,7.63,0,0,0,.83,5.88,12.56,12.56,0,0,0,3.84,3.26c1.59,1,3.11,2.21,4.64,3.35,2.77,2.06,5.47,4.22,8.15,6.39,7.74,6.26,12,9.72,26.67,13.29,2.46.6,5.09,1.19,7.83,1.74A11.58,11.58,0,0,0,54,95c1.72,0,3.09-.72,5.59-3.4a48.31,48.31,0,0,0,6.08-8.28c1.23-2.64,1.27-3.1,1.38-4.09a18.65,18.65,0,0,1,.6-3.3c2.23-9.29,6-16.42,7.48-25.77A72.49,72.49,0,0,0,75.91,34.43ZM65.85,10.29,61.07,15.4l3.1,6.29a.49.49,0,0,1-.65.67l-6.26-3-5,4.94a.54.54,0,0,1-.35.14.46.46,0,0,1-.23-.05.49.49,0,0,1-.26-.5l.88-7-6.19-3.25a.5.5,0,0,1,.14-.93l6.86-1.3,1.16-6.92a.5.5,0,0,1,.41-.41.49.49,0,0,1,.52.25l3.34,6.16,6.91-1a.51.51,0,0,1,.51.26A.48.48,0,0,1,65.85,10.29Z"/></g></g><text x="0" y="110" fill="#000000" font-size="5px" font-weight="bold" font-family="'Helvetica Neue', Helvetica, Arial-Unicode, Arial, Sans-serif">Created by Carlos von Dessauer</text><text x="0" y="115" fill="#000000" font-size="5px" font-weight="bold" font-family="'Helvetica Neue', Helvetica, Arial-Unicode, Arial, Sans-serif">from the Noun Project</text></svg>