<svg xmlns="http://www.w3.org/2000/svg" xmlns:xlink="http://www.w3.org/1999/xlink" version="1.1" x="0px" y="0px" viewBox="0 0 512 640" style="enable-background:new 0 0 512 512;" xml:space="preserve"><circle cx="80.7" cy="111.7" r="16"/><polygon points="137.1,289 129.3,287 124.4,306.4 105,301.4 103,309.1 122.4,314.1 116.4,337.4 97,332.4 95,340.1 114.4,345.1   108.4,368.3 89,363.3 87,371.1 106.4,376.1 100.4,399.3 81,394.3 79,402.1 98.4,407.1 92.4,430.3 73,425.3 71,433.1 90.4,438.1   85.4,457.4 93.1,459.4 98.1,440 117.5,445 119.5,437.3 100.1,432.3 106.1,409.1 125.5,414.1 127.5,406.3 108.1,401.3 114.1,378.1   133.5,383.1 135.5,375.3 116.1,370.3 122.1,347.1 141.5,352.1 143.5,344.3 124.1,339.4 130.1,316.1 149.5,321.1 151.5,313.4   132.1,308.4 "/><path d="M458.6,416.3l38.3-9.5L495,399l-33.7,8.3l15-49c0.7-2.5,2.4-4.5,4.7-5.7c4.1-2.2,7.2-5.9,8.6-10.4l1.4-4.5  c2.8-9.3-2.4-19.2-11.7-22.1l-43-13.2c0.7,0.1,1.4,0.1,2.1,0.1c0.1,0,0.2,0,0.4,0c18,0,32.9-14,34.1-31.9  c1.9-28.7-10.9-56.4-34-73.5l-6.7-5l-5.7-22.6l18.9-20.4c28-30.1,36.9-73.4,23-112.1c-0.7-2.1-3-3.2-5.1-2.4c-0.8,0.3-1.5,0.8-2,1.5  l-49.9,73.2l-21.6-85.9c-0.5-2.1-2.7-3.4-4.9-2.9c-0.8,0.2-1.6,0.7-2.1,1.3c-26.4,31.6-33,75.2-17.1,113.2l10.7,25.6L363.3,180  l-8,2.4c-19.5,5.7-36.3,18.3-47.2,35.4L297.7,57.6c-0.1-2.2-2-3.9-4.2-3.7c0,0,0,0,0,0L105.8,66l-1.5-24l215.6-13.9l9.6,148.1l8-0.5  l-9.8-152.1c-0.1-2.2-2-3.9-4.2-3.7L99.7,34.3c-2.2,0.1-3.9,2-3.7,4.2c0,0,0,0,0,0l1.8,27.9l-59.9,3.9c-2,0.1-3.5,1.6-3.7,3.6  L19.8,216.6c-0.2,2-0.2,4-0.1,5.9L35,459.4c1.2,18.9,16.9,33.7,35.9,33.7c0.8,0,1.6,0,2.4-0.1l247.5-16c8.7-0.5,16.9-4.3,23.1-10.4  c0.2,0.1,0.4,0.2,0.6,0.2l81,24.8c4.5,1.4,9.3,0.9,13.5-1.3c4.1-2.2,7.2-5.9,8.6-10.4l1.4-4.5c1.4-4.5,0.9-9.3-1.3-13.5  c-1.2-2.3-1.5-4.9-0.7-7.4L458.6,416.3z M448.5,348.1l-82.9,44l8.4-27.4l47-25L448.5,348.1z M377.4,353.8l7.2-23.6  c0.2-0.5,0.3-1.1,0.4-1.6l25.3,7.7L377.4,353.8z M434.3,203.6c20.9,15.5,32.5,40.6,30.8,66.5c-0.9,13.7-12.3,24.4-26.1,24.4  c-0.1,0-0.2,0-0.3,0c-10.6-0.1-20-6.6-24-16.4l-20.2-50.3l5.2-29.2l20.5-22.1l4.8,19c0.2,0.9,0.8,1.7,1.5,2.2L434.3,203.6z   M373.2,132c-13.7-32.5-9.5-69.8,10.9-98.5l21.4,84.8l-23.6,34.6L373.2,132z M305.8,241.9c7.3-25,26.8-44.5,51.8-51.9l9.4-2.8  c0.9-0.3,1.6-0.8,2.2-1.6l94.3-138.1c9.3,34,0.3,70.4-23.7,96.3L393,194.1c-0.5,0.6-0.9,1.3-1,2c-3.5,19.9-12.6,38.3-26.1,53.3  l-15.7,17.3c-9.7,10.7-26.2,11.6-36.9,1.9c-0.2-0.2-0.3-0.3-0.5-0.5l0-0.1l-0.1,0c-3.7-3.6-6.3-8.2-7.4-13.3l-0.4-8.6  C305.1,244.7,305.4,243.3,305.8,241.9z M289.9,62.1l4.6,71.9l-47.9,3.1L242,65.2L289.9,62.1z M234,65.7l4.6,71.9l-47.9,3.1  l-4.6-71.9L234,65.7z M178.2,69.3l4.6,71.9l-47.9,3.1l-4.6-71.9L178.2,69.3z M41.8,78.2l80.4-5.2l4.6,71.9l-92.4,6L41.8,78.2z   M288.3,471.1L72.8,485C57.3,486,44,474.3,43,458.9c0,0,0,0,0,0L27.7,222c-0.1-1.5-0.1-3.1,0.1-4.6l5.9-58.5l147.1-9.5l6.9,44.8  c2.6,16.9,10.4,32.6,22.2,45l38.4-72.4c3.1-5.9,10.4-8.1,16.2-5c5,2.7,7.5,8.5,5.9,14L245,261.3c2.6,0.9,58.6,13,58.6,13l9.3,144.3  l-20.6,10.3c-16.3,8.1-36,1.5-44.1-14.8c-0.3-0.6-0.6-1.3-0.9-1.9l-1.3-3.1l11.1-4.6c4.9-2,8.8-6,10.8-10.9l0.5-1.3  c4.2-10.2-0.7-21.9-11-26.1c-0.1,0-0.1-0.1-0.2-0.1c-10.2-4-21.7,0.9-25.9,11l-0.5,1.3c-2,4.9-2,10.4,0.1,15.3l4.6,11.1l-2.1,0.9  c-18.1,7.6-39-0.9-46.6-19c-3.7-8.7-3.7-18.5-0.1-27.2l10.3-25.2c3.7,0.7,7.5,0.3,10.9-1.2l0,0c5.4-2.2,9.4-6.8,11.1-12.3  l43.6-147.2c0.6-2.1-0.6-4.3-2.7-5c-1.8-0.5-3.8,0.3-4.7,2l-71.9,135.6c-4.6,8.7-1.9,19.5,6.2,25.1l-10.3,25.2  c-9.1,22.3,1.6,47.7,23.9,56.8c10.7,4.4,22.7,4.3,33.4-0.2l2.1-0.9l1.3,3.1c8.8,20.8,32.7,30.6,53.6,21.9c0.8-0.3,1.6-0.7,2.4-1.1  l17.6-8.8l0.9,14.1C315.4,456.7,303.7,470.1,288.3,471.1z M243,401.7l-4.6-11.1c-1.2-2.9-1.3-6.2,0-9.2l0.5-1.3  c1.9-4.5,6.3-7.5,11.1-7.5c6.6,0,12,5.4,12,12c0,1.5-0.3,3.1-0.9,4.5l-0.5,1.3c-1.2,3-3.5,5.3-6.5,6.5L243,401.7z M190,319.6  c-1.3-3.1-1.2-6.7,0.4-9.7l53.2-100.3l-32.2,108.8c-1.8,6-8.1,9.4-14.1,7.7C194,325.1,191.4,322.7,190,319.6L190,319.6z   M342.8,429.8c-4.1,2.2-7.2,5.9-8.6,10.4l-1.4,4.5c-1.9,6.1-0.3,12.8,4.1,17.4c-4.6,4.1-10.5,6.5-16.7,6.9l-9.4,0.6  c8-7.4,12.3-17.9,11.6-28.8l-1.1-17.4l23.3-11.6l1,15.8C344.8,428.5,343.8,429.2,342.8,429.8L342.8,429.8z M345.1,295.7l-8,0.5  l6.9,106.8l-23.3,11.6l-8.9-137.1c14.1,9.4,33,7.1,44.3-5.5l15.7-17.3c6.1-6.8,11.4-14.3,15.8-22.3l19.6,48.8  c2.8,7.1,8,13,14.6,16.8l-23.4-7.2c-9.3-2.8-19.2,2.4-22.1,11.7L375,307c-1.4,4.5-0.9,9.3,1.3,13.5c1.2,2.3,1.5,4.9,0.7,7.4  l-21.3,69.4l-3.9,1.9L345.1,295.7z M352.4,408.1l0-0.2l0.1,0L352.4,408.1z M354.5,428c0.2-0.5,0.4-1,0.6-1.6l7.2-23.6l97-51.5  l10,3.1c-0.2,0.5-0.4,1-0.6,1.6l-4.9,16l-107,56.8L354.5,428z M367.7,432l92.9-49.3l-8.4,27.4l-57,30.3L367.7,432z M439.2,452.2  c-0.2,0.5-0.3,1.1-0.4,1.6l-32.9-10.1l42.9-22.8L439.2,452.2z"/><rect x="321.6" y="228.5" transform="matrix(0.6567 -0.7541 0.7541 0.6567 -56.9301 339.8924)" width="46.6" height="8"/><rect x="427.5" y="224.6" transform="matrix(0.9343 -0.3564 0.3564 0.9343 -60.014 170.0948)" width="8" height="46.6"/><path d="M474.3,162.6c8.3-9.9,14.7-21.1,19.1-33.2l-7.5-2.7c-4.1,11.2-10.1,21.6-17.7,30.8L474.3,162.6z"/><rect x="445.7" y="172" transform="matrix(0.6797 -0.7335 0.7335 0.6797 17.1534 391.2804)" width="21.8" height="8"/><rect x="197.3" y="309.4" transform="matrix(0.3922 -0.9199 0.9199 0.3922 -165.7824 375.8599)" width="8.4" height="8"/><text x="0" y="527" fill="#000000" font-size="5px" font-weight="bold" font-family="'Helvetica Neue', Helvetica, Arial-Unicode, Arial, Sans-serif">Created by WiStudio</text><text x="0" y="532" fill="#000000" font-size="5px" font-weight="bold" font-family="'Helvetica Neue', Helvetica, Arial-Unicode, Arial, Sans-serif">from the Noun Project</text></svg>