<svg xmlns="http://www.w3.org/2000/svg" xmlns:xlink="http://www.w3.org/1999/xlink" version="1.1" x="0px" y="0px" viewBox="0 0 100 125" enable-background="new 0 0 100 100" xml:space="preserve"><path d="M90.596,50.74l-65.459-1.953c-0.086-0.109-0.165-0.223-0.266-0.322  c-0.723-0.725-1.74-1.139-2.793-1.139h-7.499c-2.117,0-3.84,1.631-3.841,3.639c0.004,2.004,1.728,3.635,3.844,3.635h7.497  c1.053,0,2.07-0.416,2.793-1.141c0.234-0.234,0.417-0.5,0.575-0.777L90.596,50.74z M22.748,51.34  c-0.164,0.164-0.408,0.26-0.671,0.26h-7.495c-0.457,0-0.844-0.293-0.844-0.637c0-0.346,0.387-0.637,0.843-0.637h7.497  c0.262,0,0.506,0.094,0.67,0.258c0.078,0.078,0.17,0.207,0.17,0.383C22.918,51.135,22.826,51.262,22.748,51.34z"/><text x="0" y="115" fill="#000000" font-size="5px" font-weight="bold" font-family="'Helvetica Neue', Helvetica, Arial-Unicode, Arial, Sans-serif">Created by Clément Branger</text><text x="0" y="120" fill="#000000" font-size="5px" font-weight="bold" font-family="'Helvetica Neue', Helvetica, Arial-Unicode, Arial, Sans-serif">from the Noun Project</text></svg>