<svg xmlns="http://www.w3.org/2000/svg" viewBox="0 0 64 80" x="0px" y="0px"><path d="M32,16c.552,0,1-.447,1-1v-1c0-.553-.448-1-1-1s-1,.447-1,1v1c0,.553,.448,1,1,1Z"/><path d="M32,20c.552,0,1-.447,1-1v-1c0-.553-.448-1-1-1s-1,.447-1,1v1c0,.553,.448,1,1,1Z"/><path d="M32,24c.552,0,1-.447,1-1v-1c0-.553-.448-1-1-1s-1,.447-1,1v1c0,.553,.448,1,1,1Z"/><path d="M32,48c-.552,0-1,.447-1,1v1c0,.553,.448,1,1,1s1-.447,1-1v-1c0-.553-.448-1-1-1Z"/><path d="M29.028,43.178c.111,1.151,1.222,1.995,1.972,2.429v.393c0,.553,.448,1,1,1s1-.447,1-1v-.393c.75-.435,1.863-1.28,1.972-2.432,.468,.39,1.069,.53,1.661,.53,.929,0,1.821-.311,2.082-.41,.267-.102,.478-.312,.579-.579,.163-.429,.883-2.559-.122-3.743,1.559-.146,2.551-2.146,2.739-2.563,.117-.261,.117-.56,0-.82-.188-.417-1.182-2.42-2.743-2.563,1.001-1.201,.288-3.315,.125-3.742-.102-.267-.312-.478-.579-.579-.43-.163-2.56-.881-3.743,.122-.108-1.153-1.222-1.999-1.973-2.434v-.393c0-.553-.448-1-1-1s-1,.447-1,1v.393c-.752,.436-1.867,1.282-1.973,2.437-1.201-1-3.315-.289-3.742-.125-.267,.102-.478,.312-.579,.579-.163,.429-.883,2.56,.122,3.743-1.559,.146-2.552,2.146-2.739,2.563-.117,.261-.117,.56,0,.82,.188,.417,1.182,2.42,2.743,2.563-1.002,1.2-.288,3.315-.125,3.742,.102,.267,.312,.478,.579,.579,.262,.1,1.161,.413,2.091,.413,.593,0,1.191-.14,1.652-.53Zm5.669-5.895c.045-.093,.084-.186,.119-.283h2.067c-.024,.112-.04,.223-.072,.337-.1,.396-.255,.774-.479,1.155-.047,.087-.112,.171-.168,.257l-1.466-1.466Zm-1.699-1.271c-.003,.257-.107,.503-.293,.69-.386,.386-1.023,.385-1.408,0-.188-.189-.291-.434-.294-.69l.002-.012-.002-.012c.003-.257,.107-.503,.294-.69,.385-.384,1.024-.383,1.406-.002,.189,.189,.292,.435,.295,.692l-.002,.012,.002,.012Zm-3.694-1.295c-.045,.093-.084,.186-.119,.283h-2.066c.024-.112,.04-.224,.073-.338,.099-.396,.253-.773,.478-1.154,.048-.087,.112-.171,.168-.257l1.466,1.466Zm1.359,6.093c-.395-.099-.773-.254-1.141-.472-.094-.053-.179-.118-.269-.177l1.465-1.465c.093,.045,.186,.084,.283,.119v2.066c-.112-.024-.225-.04-.337-.072Zm2.674-9.621c.396,.1,.774,.255,1.141,.472,.094,.053,.18,.119,.27,.178l-1.475,1.475c-.09-.041-.18-.078-.273-.11v-2.086c.112,.024,.223,.04,.337,.072Zm-1.336,12.685c-.506-.298-.964-.688-1-.874,0-.027,.01-.049,.012-.075,.325,.048,.655,.075,.988,.075,.336,0,.667-.028,.99-.075,.002,.022,.011,.042,.011,.064-.034,.181-.466,.57-1,.885Zm5.564-2.31c-.596,.155-1.171,.185-1.328,.078-.016-.015-.022-.033-.037-.048,.259-.195,.507-.408,.747-.647h.002c.245-.247,.461-.495,.65-.744,.017,.015,.035,.022,.051,.039,.101,.151,.07,.728-.085,1.322Zm2.31-5.564c-.298,.506-.688,.964-.874,1-.026,0-.049-.01-.075-.012,.048-.325,.075-.655,.075-.988,0-.336-.028-.667-.075-.99,.022-.002,.042-.011,.064-.011,.181,.034,.57,.466,.885,1.001Zm-2.31-5.564c.155,.596,.185,1.172,.078,1.328-.014,.014-.03,.02-.044,.034-.191-.252-.406-.499-.65-.743l-.002-.002c-.24-.239-.489-.452-.746-.646,.016-.018,.024-.038,.042-.055,.151-.102,.729-.068,1.322,.085Zm-5.565-2.31c.506,.298,.964,.688,1,.874,0,.027-.01,.051-.012,.077-.318-.046-.639-.07-.96-.072-.01,0-.018-.006-.028-.006-.007,0-.013,.004-.019,.004-.329,0-.653,.026-.97,.072-.002-.022-.011-.042-.011-.065,.034-.181,.465-.57,1-.885Zm-5.564,2.31c.596-.155,1.171-.184,1.328-.078,.016,.015,.022,.033,.036,.048-.259,.195-.508,.408-.747,.647h-.002c-.245,.247-.461,.495-.65,.744-.017-.015-.035-.022-.051-.039-.101-.151-.07-.728,.085-1.322Zm-2.31,5.564c.314-.536,.702-.967,.874-1,.026,0,.049,.01,.075,.012-.048,.325-.075,.654-.075,.988,0,.337,.028,.668,.075,.99-.022,.002-.042,.011-.064,.011-.18-.034-.57-.466-.884-1.001Zm2.31,5.564c-.146-.563-.192-1.16-.078-1.328,.014-.014,.03-.02,.043-.033,.191,.252,.407,.5,.651,.745,.24,.239,.489,.452,.746,.646-.016,.018-.024,.038-.042,.055-.152,.101-.728,.069-1.322-.085Z"/><path d="M25,63c0,.553,.448,1,1,1h15c.553,0,1-.447,1-1v-13.37c0-.97,.17-1.914,.506-2.807,1.277-3.382,2.071-6.936,2.36-10.557,.089-1.017,.134-2.085,.134-3.177V13c0-.812-.316-1.566-.873-2.107-.561-.576-1.315-.893-2.127-.893-.352,0-.686,.072-1,.184V5.5c0-.925-.373-1.828-1.022-2.476-.649-.651-1.553-1.024-2.478-1.024-.657,0-1.265,.193-1.791,.509-.199-.494-.494-.948-.882-1.336-.756-.757-1.761-1.173-2.827-1.173-2.206,0-4,1.794-4,4v.348c-.464-.22-.97-.348-1.5-.348-1.93,0-3.5,1.57-3.5,3.5V26.055l-2.779-1.988c-1.861-1.33-4.547-1.308-6.406,.08-1.205,.892-1.561,2.556-.826,3.876l11.101,19.641c.596,1.051,.91,2.239,.91,3.437v11.9Zm2-9h1v2h-1v-2Zm7,0v2h-1v-2h1Zm6,0v2h-1v-2h1Zm-9.5,4c.276,0,.5,.225,.5,.5s-.224,.5-.5,.5-.5-.225-.5-.5,.224-.5,.5-.5Zm6,0c.275,0,.5,.225,.5,.5s-.225,.5-.5,.5-.5-.225-.5-.5,.225-.5,.5-.5Zm-9.5,4v-1.051c.162,.033,.329,.051,.5,.051,.565,0,1.081-.195,1.5-.513,.419,.317,.935,.513,1.5,.513s1.081-.195,1.5-.513c.419,.317,.935,.513,1.5,.513s1.081-.195,1.5-.512c.419,.317,.935,.512,1.5,.512s1.081-.195,1.5-.512c.419,.317,.935,.512,1.5,.512,.171,0,.338-.018,.5-.051v1.051h-13Zm3.5-52c.276,0,.5,.225,.5,.5s-.224,.5-.5,.5-.5-.225-.5-.5,.224-.5,.5-.5Zm3,0c.275,0,.5,.225,.5,.5s-.225,.5-.5,.5-.5-.225-.5-.5,.225-.5,.5-.5Zm-1.5-8c.533,0,1.034,.208,1.413,.587s.587,.881,.587,1.413v1h-4v-1c0-1.103,.897-2,2-2ZM14.733,27.044c-.249-.447-.134-.989,.275-1.292,1.186-.886,2.881-.894,4.05-.059l4.36,3.12c.305,.216,.705,.247,1.039,.076,.333-.172,.543-.515,.543-.89V7.5c0-.827,.673-1.5,1.5-1.5,.397,0,.785,.159,1.063,.438,.277,.276,.437,.663,.437,1.062V24c0,.553,.448,1,1,1s1-.447,1-1V12.949c.162,.033,.329,.051,.5,.051,.565,0,1.081-.195,1.5-.513,.419,.317,.935,.513,1.5,.513,.171,0,.338-.018,.5-.051v11.051c0,.553,.447,1,1,1s1-.447,1-1V5.5c0-.827,.673-1.5,1.5-1.5,.397,0,.784,.159,1.063,.438,.277,.277,.437,.664,.437,1.062V24c0,.553,.447,1,1,1s1-.447,1-1V13c0-.552,.448-1,1-1,.267,0,.514,.103,.713,.307,.185,.18,.287,.427,.287,.693v20.09c0,1.034-.042,2.044-.127,3.011-.274,3.44-1.027,6.811-2.239,10.018-.42,1.119-.634,2.301-.634,3.512v2.37h-13v-.9c0-1.543-.405-3.072-1.169-4.422L14.733,27.044Z"/><text x="0" y="79" fill="#000000" font-size="5px" font-weight="bold" font-family="'Helvetica Neue', Helvetica, Arial-Unicode, Arial, Sans-serif">Created by ToZIcon</text><text x="0" y="84" fill="#000000" font-size="5px" font-weight="bold" font-family="'Helvetica Neue', Helvetica, Arial-Unicode, Arial, Sans-serif">from the Noun Project</text></svg>